<svg xmlns="http://www.w3.org/2000/svg" xmlns:rdkit="http://www.rdkit.org/xml" xmlns:xlink="http://www.w3.org/1999/xlink" version="1.1" baseProfile="full" xml:space="preserve" width="600px" height="200px" viewBox="0 0 600 200">
<!-- END OF HEADER -->
<rect style="opacity:1.0;fill:#FFFFFF;stroke:none" width="200.0" height="200.0" x="0.0" y="0.0"> </rect>
<path class="bond-0 atom-0 atom-1" d="M 11.3,77.9 L 70.4,43.7" style="fill:none;fill-rule:evenodd;stroke:#000000;stroke-width:2.0px;stroke-linecap:butt;stroke-linejoin:miter;stroke-opacity:1"/>
<path class="bond-1 atom-1 atom-2" d="M 70.4,43.7 L 129.6,77.9" style="fill:none;fill-rule:evenodd;stroke:#000000;stroke-width:2.0px;stroke-linecap:butt;stroke-linejoin:miter;stroke-opacity:1"/>
<path class="bond-2 atom-2 atom-3" d="M 129.6,77.9 L 188.7,43.7" style="fill:none;fill-rule:evenodd;stroke:#000000;stroke-width:2.0px;stroke-linecap:butt;stroke-linejoin:miter;stroke-opacity:1"/>
<path class="bond-3 atom-2 atom-4" d="M 129.6,77.9 L 129.6,106.0" style="fill:none;fill-rule:evenodd;stroke:#000000;stroke-width:2.0px;stroke-linecap:butt;stroke-linejoin:miter;stroke-opacity:1"/>
<path class="bond-3 atom-2 atom-4" d="M 129.6,106.0 L 129.6,134.1" style="fill:none;fill-rule:evenodd;stroke:#FF0000;stroke-width:2.0px;stroke-linecap:butt;stroke-linejoin:miter;stroke-opacity:1"/>
<path d="M 67.5,45.4 L 70.4,43.7 L 73.4,45.4" style="fill:none;stroke:#000000;stroke-width:2.0px;stroke-linecap:butt;stroke-linejoin:miter;stroke-miterlimit:10;stroke-opacity:1;"/>
<path class="atom-4" d="M 120.7 146.2 Q 120.7 141.6, 123.0 139.0 Q 125.3 136.4, 129.6 136.4 Q 133.9 136.4, 136.2 139.0 Q 138.5 141.6, 138.5 146.2 Q 138.5 150.9, 136.1 153.6 Q 133.8 156.3, 129.6 156.3 Q 125.3 156.3, 123.0 153.6 Q 120.7 151.0, 120.7 146.2 M 129.6 154.1 Q 132.5 154.1, 134.1 152.1 Q 135.7 150.1, 135.7 146.2 Q 135.7 142.4, 134.1 140.5 Q 132.5 138.6, 129.6 138.6 Q 126.6 138.6, 125.0 140.5 Q 123.4 142.4, 123.4 146.2 Q 123.4 150.1, 125.0 152.1 Q 126.6 154.1, 129.6 154.1 " fill="#FF0000"/>
<path class="atom-4" d="M 141.5 136.6 L 144.1 136.6 L 144.1 144.8 L 154.0 144.8 L 154.0 136.6 L 156.6 136.6 L 156.6 156.0 L 154.0 156.0 L 154.0 147.0 L 144.1 147.0 L 144.1 156.0 L 141.5 156.0 L 141.5 136.6 " fill="#FF0000"/>
<path class="bond-0 atom-0 atom-1" d="M 210.0,80.1 L 269.1,46.0" style="fill:none;fill-rule:evenodd;stroke:#000000;stroke-width:2.0px;stroke-linecap:butt;stroke-linejoin:miter;stroke-opacity:1"/>
<path class="bond-1 atom-1 atom-2" d="M 269.1,46.0 L 328.3,80.1" style="fill:none;fill-rule:evenodd;stroke:#000000;stroke-width:2.0px;stroke-linecap:butt;stroke-linejoin:miter;stroke-opacity:1"/>
<path class="bond-2 atom-2 atom-3" d="M 331.1,78.2 L 331.4,78.6" style="fill:none;fill-rule:evenodd;stroke:#000000;stroke-width:1.0px;stroke-linecap:butt;stroke-linejoin:miter;stroke-opacity:1"/>
<path class="bond-2 atom-2 atom-3" d="M 334.0,76.2 L 334.5,77.1" style="fill:none;fill-rule:evenodd;stroke:#000000;stroke-width:1.0px;stroke-linecap:butt;stroke-linejoin:miter;stroke-opacity:1"/>
<path class="bond-2 atom-2 atom-3" d="M 336.8,74.3 L 337.5,75.6" style="fill:none;fill-rule:evenodd;stroke:#000000;stroke-width:1.0px;stroke-linecap:butt;stroke-linejoin:miter;stroke-opacity:1"/>
<path class="bond-2 atom-2 atom-3" d="M 339.6,72.4 L 340.6,74.2" style="fill:none;fill-rule:evenodd;stroke:#000000;stroke-width:1.0px;stroke-linecap:butt;stroke-linejoin:miter;stroke-opacity:1"/>
<path class="bond-2 atom-2 atom-3" d="M 342.4,70.5 L 343.7,72.7" style="fill:none;fill-rule:evenodd;stroke:#000000;stroke-width:1.0px;stroke-linecap:butt;stroke-linejoin:miter;stroke-opacity:1"/>
<path class="bond-2 atom-2 atom-3" d="M 345.3,68.5 L 346.8,71.2" style="fill:none;fill-rule:evenodd;stroke:#000000;stroke-width:1.0px;stroke-linecap:butt;stroke-linejoin:miter;stroke-opacity:1"/>
<path class="bond-2 atom-2 atom-3" d="M 348.1,66.6 L 349.9,69.7" style="fill:none;fill-rule:evenodd;stroke:#000000;stroke-width:1.0px;stroke-linecap:butt;stroke-linejoin:miter;stroke-opacity:1"/>
<path class="bond-2 atom-2 atom-3" d="M 350.9,64.7 L 353.0,68.2" style="fill:none;fill-rule:evenodd;stroke:#000000;stroke-width:1.0px;stroke-linecap:butt;stroke-linejoin:miter;stroke-opacity:1"/>
<path class="bond-2 atom-2 atom-3" d="M 353.8,62.7 L 356.1,66.7" style="fill:none;fill-rule:evenodd;stroke:#000000;stroke-width:1.0px;stroke-linecap:butt;stroke-linejoin:miter;stroke-opacity:1"/>
<path class="bond-2 atom-2 atom-3" d="M 356.6,60.8 L 359.1,65.2" style="fill:none;fill-rule:evenodd;stroke:#000000;stroke-width:1.0px;stroke-linecap:butt;stroke-linejoin:miter;stroke-opacity:1"/>
<path class="bond-2 atom-2 atom-3" d="M 359.4,58.9 L 362.2,63.8" style="fill:none;fill-rule:evenodd;stroke:#000000;stroke-width:1.0px;stroke-linecap:butt;stroke-linejoin:miter;stroke-opacity:1"/>
<path class="bond-2 atom-2 atom-3" d="M 362.2,57.0 L 365.3,62.3" style="fill:none;fill-rule:evenodd;stroke:#000000;stroke-width:1.0px;stroke-linecap:butt;stroke-linejoin:miter;stroke-opacity:1"/>
<path class="bond-2 atom-2 atom-3" d="M 365.1,55.0 L 368.4,60.8" style="fill:none;fill-rule:evenodd;stroke:#000000;stroke-width:1.0px;stroke-linecap:butt;stroke-linejoin:miter;stroke-opacity:1"/>
<path class="bond-2 atom-2 atom-3" d="M 367.9,53.1 L 371.5,59.3" style="fill:none;fill-rule:evenodd;stroke:#000000;stroke-width:1.0px;stroke-linecap:butt;stroke-linejoin:miter;stroke-opacity:1"/>
<path class="bond-2 atom-2 atom-3" d="M 370.7,51.2 L 374.6,57.8" style="fill:none;fill-rule:evenodd;stroke:#000000;stroke-width:1.0px;stroke-linecap:butt;stroke-linejoin:miter;stroke-opacity:1"/>
<path class="bond-2 atom-2 atom-3" d="M 373.6,49.2 L 377.7,56.3" style="fill:none;fill-rule:evenodd;stroke:#000000;stroke-width:1.0px;stroke-linecap:butt;stroke-linejoin:miter;stroke-opacity:1"/>
<path class="bond-2 atom-2 atom-3" d="M 376.4,47.3 L 380.7,54.8" style="fill:none;fill-rule:evenodd;stroke:#000000;stroke-width:1.0px;stroke-linecap:butt;stroke-linejoin:miter;stroke-opacity:1"/>
<path class="bond-2 atom-2 atom-3" d="M 379.2,45.4 L 383.8,53.4" style="fill:none;fill-rule:evenodd;stroke:#000000;stroke-width:1.0px;stroke-linecap:butt;stroke-linejoin:miter;stroke-opacity:1"/>
<path class="bond-2 atom-2 atom-3" d="M 382.0,43.4 L 386.9,51.9" style="fill:none;fill-rule:evenodd;stroke:#000000;stroke-width:1.0px;stroke-linecap:butt;stroke-linejoin:miter;stroke-opacity:1"/>
<path class="bond-2 atom-2 atom-3" d="M 384.9,41.5 L 390.0,50.4" style="fill:none;fill-rule:evenodd;stroke:#000000;stroke-width:1.0px;stroke-linecap:butt;stroke-linejoin:miter;stroke-opacity:1"/>
<path class="bond-3 atom-2 atom-4" d="M 328.3,80.1 L 328.3,108.2" style="fill:none;fill-rule:evenodd;stroke:#000000;stroke-width:2.0px;stroke-linecap:butt;stroke-linejoin:miter;stroke-opacity:1"/>
<path class="bond-3 atom-2 atom-4" d="M 328.3,108.2 L 328.3,136.4" style="fill:none;fill-rule:evenodd;stroke:#FF0000;stroke-width:2.0px;stroke-linecap:butt;stroke-linejoin:miter;stroke-opacity:1"/>
<path d="M 266.2,47.7 L 269.1,46.0 L 272.1,47.7" style="fill:none;stroke:#000000;stroke-width:2.0px;stroke-linecap:butt;stroke-linejoin:miter;stroke-miterlimit:10;stroke-opacity:1;"/>
<path d="M 325.3,78.4 L 328.3,80.1 L 328.3,81.5" style="fill:none;stroke:#000000;stroke-width:2.0px;stroke-linecap:butt;stroke-linejoin:miter;stroke-miterlimit:10;stroke-opacity:1;"/>
<path class="atom-4" d="M 319.4 148.5 Q 319.4 143.8, 321.7 141.2 Q 324.0 138.6, 328.3 138.6 Q 332.6 138.6, 334.9 141.2 Q 337.2 143.8, 337.2 148.5 Q 337.2 153.2, 334.8 155.8 Q 332.5 158.5, 328.3 158.5 Q 324.0 158.5, 321.7 155.8 Q 319.4 153.2, 319.4 148.5 M 328.3 156.3 Q 331.2 156.3, 332.8 154.3 Q 334.4 152.3, 334.4 148.5 Q 334.4 144.7, 332.8 142.7 Q 331.2 140.8, 328.3 140.8 Q 325.3 140.8, 323.7 142.7 Q 322.1 144.6, 322.1 148.5 Q 322.1 152.4, 323.7 154.3 Q 325.3 156.3, 328.3 156.3 " fill="#FF0000"/>
<path class="atom-4" d="M 340.2 138.8 L 342.8 138.8 L 342.8 147.1 L 352.7 147.1 L 352.7 138.8 L 355.3 138.8 L 355.3 158.2 L 352.7 158.2 L 352.7 149.2 L 342.8 149.2 L 342.8 158.2 L 340.2 158.2 L 340.2 138.8 " fill="#FF0000"/>
<path class="bond-0 atom-0 atom-1" d="M 410.0,80.1 L 469.1,46.0" style="fill:none;fill-rule:evenodd;stroke:#000000;stroke-width:2.0px;stroke-linecap:butt;stroke-linejoin:miter;stroke-opacity:1"/>
<path class="bond-1 atom-1 atom-2" d="M 469.1,46.0 L 528.3,80.1" style="fill:none;fill-rule:evenodd;stroke:#000000;stroke-width:2.0px;stroke-linecap:butt;stroke-linejoin:miter;stroke-opacity:1"/>
<path class="bond-2 atom-2 atom-3" d="M 528.3,80.1 L 584.9,41.5 L 590.0,50.4 Z" style="fill:#000000;fill-rule:evenodd;fill-opacity:1;stroke:#000000;stroke-width:0.5px;stroke-linecap:butt;stroke-linejoin:miter;stroke-miterlimit:10;stroke-opacity:1;"/>
<path class="bond-3 atom-2 atom-4" d="M 528.3,80.1 L 528.3,108.2" style="fill:none;fill-rule:evenodd;stroke:#000000;stroke-width:2.0px;stroke-linecap:butt;stroke-linejoin:miter;stroke-opacity:1"/>
<path class="bond-3 atom-2 atom-4" d="M 528.3,108.2 L 528.3,136.4" style="fill:none;fill-rule:evenodd;stroke:#FF0000;stroke-width:2.0px;stroke-linecap:butt;stroke-linejoin:miter;stroke-opacity:1"/>
<path d="M 466.2,47.7 L 469.1,46.0 L 472.1,47.7" style="fill:none;stroke:#000000;stroke-width:2.0px;stroke-linecap:butt;stroke-linejoin:miter;stroke-miterlimit:10;stroke-opacity:1;"/>
<path d="M 525.3,78.4 L 528.3,80.1 L 528.3,81.5" style="fill:none;stroke:#000000;stroke-width:2.0px;stroke-linecap:butt;stroke-linejoin:miter;stroke-miterlimit:10;stroke-opacity:1;"/>
<path class="atom-4" d="M 519.4 148.5 Q 519.4 143.8, 521.7 141.2 Q 524.0 138.6, 528.3 138.6 Q 532.6 138.6, 534.9 141.2 Q 537.2 143.8, 537.2 148.5 Q 537.2 153.2, 534.8 155.8 Q 532.5 158.5, 528.3 158.5 Q 524.0 158.5, 521.7 155.8 Q 519.4 153.2, 519.4 148.5 M 528.3 156.3 Q 531.2 156.3, 532.8 154.3 Q 534.4 152.3, 534.4 148.5 Q 534.4 144.7, 532.8 142.7 Q 531.2 140.8, 528.3 140.8 Q 525.3 140.8, 523.7 142.7 Q 522.1 144.6, 522.1 148.5 Q 522.1 152.4, 523.7 154.3 Q 525.3 156.3, 528.3 156.3 " fill="#FF0000"/>
<path class="atom-4" d="M 540.2 138.8 L 542.8 138.8 L 542.8 147.1 L 552.7 147.1 L 552.7 138.8 L 555.3 138.8 L 555.3 158.2 L 552.7 158.2 L 552.7 149.2 L 542.8 149.2 L 542.8 158.2 L 540.2 158.2 L 540.2 138.8 " fill="#FF0000"/>
</svg>